<svg xmlns="http://www.w3.org/2000/svg" xmlns:xlink="http://www.w3.org/1999/xlink" viewBox="0 0 429 308">
  <title>08AboutInfographics_01</title>
  <path d="M392.83,288.41a8.54,8.54,0,0,1-1.05,5.2,9.87,9.87,0,0,1-6.39,4.75,13.26,13.26,0,0,1-14.9-6.45,11.58,11.58,0,0,1-.91-2.66,8.2,8.2,0,0,1-.08-3.31,8.41,8.41,0,0,1,1.17-3.15,9.38,9.38,0,0,1,2.82-3,11.51,11.51,0,0,1,5-1.83c.41-.05.82-.07,1.22-.09a3.18,3.18,0,0,0,2.31-1.21l5.5,1.88a3.24,3.24,0,0,0,1.16,2.46A11,11,0,0,1,392.83,288.41Zm-9.9,6.84.37-1.08-7.48-2.55-.37,1.08Z" transform="translate(-15 -13)" style="fill:#FCCE6C" />
  <path d="M391.6,249.19,397,251c-4,11.48-9.05,26-9.27,26.61l-5.19-1.78C382.91,274.75,387.78,260.43,391.6,249.19Z" transform="translate(-15 -13)" style="fill:#FCCE6C" />
  <path d="M398,234.61a23.78,23.78,0,0,1,2.9,1,1.57,1.57,0,0,1,.69,1.84c-.39,1.24-2.17,6.42-4.34,12.67l-5.37-1.83c2.35-6.93,4.24-12.47,4.31-12.67A1.53,1.53,0,0,1,398,234.61Zm1.41,4.93a1.53,1.53,0,1,0-1.94,1A1.53,1.53,0,0,0,399.43,239.54Zm-2.17,6.37a1.53,1.53,0,1,0-1.94,1A1.53,1.53,0,0,0,397.26,245.91Z" transform="translate(-15 -13)" style="fill:#FCCE6C" />
  <circle cx="377.26" cy="224.42" r="1.53" style="fill:#FCCE6C" />
  <circle cx="387.19" cy="233.42" r="1.53" style="fill:#FCCE6C" />
</svg>